<?xml version="1.0" encoding="UTF-8"?>
<svg shape-rendering="geometricPrecision" text-rendering="geometricPrecision" version="1.1" viewBox="0 0 250 250"
  xmlns="http://www.w3.org/2000/svg">
  <g transform="matrix(1.2053 0 0 1.2053 -25.666 -25.666)" clip-path="url(#eyx9AXK1aLP12)">
    <g transform="matrix(1.458 0 0 1.4504 125.54 125)" opacity=".28502">
      <path 
      id="aura" 
      
      d="m6e-6 -71.5c39.461 0 71.5 32.039 71.5 71.5s-32.039 71.5-71.5 71.5-71.5-32.039-71.5-71.5 32.039-71.5 71.5-71.5z"
        fill="#23b33a" stroke-width=".99087" 
        >
    <animateTransform
      attributeName="transform"
      type="scale"
      values="0.7; 1; 0.7"
      keyTimes="0; 0.5; 1"
      dur="3s"
      repeatCount="indefinite" />
        </path>
    </g>
    <g transform="translate(125 125)">
      <path
        d="m0.566-66.792c37.201 0 67.359 30.157 67.359 67.358s-28.157 67.359-65.358 67.359c-13.748 0-26.69-2.267-37.347-9.337l-29.345 6.669s8.003-28.011 8.003-28.011c-7.602-10.907-10.67-22.377-10.67-36.68 0-37.201 30.157-67.358 67.358-67.358z"
        fill="#23b33a" />
      <path transform="translate(0 .38526)"
        d="m0.566-66.792c37.201 0 67.359 30.157 67.359 67.358s-28.157 67.359-65.358 67.359c-13.748 0-26.69-2.267-37.347-9.337l-29.345 6.669s8.003-28.011 8.003-28.011c-7.602-10.907-10.67-22.377-10.67-36.68 0-37.201 30.157-67.358 67.358-67.358z"
        fill-opacity="0" stroke="#fff" stroke-width="13" />
    </g>
 <g transform="matrix(.97437 .22495 -.22495 .97437 125 125)">
      <path
        d="m-38.208-19.182c0 6.394 0.241 8.769 3.218 14.721 2.36 4.718 2.934 4.913 5.503 8.834l2.993 4.174c5.615 6.835 3.912 4.996 10.185 11.317 8.12 8.182 16.371 12.069 27.031 15.933 8.93 3.237 16.959 4.655 25.132-1.427 3.872-2.882 5.863-5.682 6.355-10.859 0.145-1.524 0.291-2.473 0.156-3.335-0.408-2.602-4.05-3.245-7.766-5.127-4.275-2.165-11.595-6.884-14.041-4.293l-6.302 8.025c-1.083 1.32-2.216 1.809-4.049 1.051-7.589-3.14-15.59-8.156-20.778-14.344-1.915-2.284-3.379-4.295-5.041-6.787-2.274-3.41-3.201-4.216 0.016-7.379 1.523-1.497 4.559-5.096 4.559-7.633 0-1.212-0.652-1.983-1.062-2.876-0.418-0.91-0.718-1.821-1.126-2.823l-3.583-8.607c-2.558-6.383-2.693-5.145-6.72-5.462-4.854-0.382-6.587 0.05-10.341 5.096-2.043 2.747-4.339 7.109-4.339 11.801"
        fill="#fff" >
         <animateTransform
      attributeName="transform"
      type="rotate"
      values="0; 120;80;120;0;0;0;0;0;0;0"
      keyTimes="0;.1;.2;.3; .4;.5;.6;.7;.8;.9;1"
      dur="3s"
      repeatCount="indefinite" />
        </path>
    </g>
    <clipPath id="eyx9AXK1aLP12">
      <rect width="250" height="250" rx="0" ry="0" />
    </clipPath>
  </g>
</svg>